<svg xmlns="http://www.w3.org/2000/svg" aria-hidden="true" style="position:absolute;width:0;height:0;overflow:hidden"><defs><symbol id="logo" viewBox="0 0 136 32"><path fill="#4d96a9" d="M16 24a8 8 0 1 1-16 0 8 8 0 0 1 16 0z" style="fill:var(--color1, #4d96a9)"/><path fill="#855fb1" d="M32 8a8 8 0 1 1-16 0 8 8 0 0 1 16 0z" style="fill:var(--color2, #855fb1)"/><path fill="#28283d" d="M50.424 29.344V15.943a3.43 3.43 0 0 1 1.319-1.055 4.13 4.13 0 0 1 1.756-.352h-.004c.939 0 1.691.327 2.258.982.566.654.849 1.512.849 2.573v11.255h5.853V17.277a11.31 11.31 0 0 0-.076-1.306l.005.047a4.092 4.092 0 0 1 1.373-1.093 3.992 3.992 0 0 1 1.771-.389c.938 0 1.691.327 2.257.982.566.654.849 1.512.849 2.573v11.255h5.853V17.277c0-2.296-.693-4.184-2.077-5.665-1.385-1.481-3.162-2.222-5.329-2.222-1.253 0-2.409.235-3.469.704a8.004 8.004 0 0 0-2.739 1.992l-.007.008a6.957 6.957 0 0 0-2.399-1.964l-.04-.018c-.975-.48-2.053-.722-3.233-.722-.891 0-1.741.137-2.547.408a7.185 7.185 0 0 0-2.235 1.232l.013-.01V9.759h-5.853v19.585h5.853zm37.069.37c1.589 0 3.017-.234 4.281-.703s2.498-1.223 3.703-2.259l-3.865-3.517a4.736 4.736 0 0 1-1.663 1.093 5.708 5.708 0 0 1-2.09.389l-.081-.001h.004c-1.109 0-2.072-.29-2.891-.871a5.183 5.183 0 0 1-1.793-2.206l-.013-.034h13.621v-1.48c0-1.531-.24-2.955-.722-4.277-.482-1.32-1.151-2.449-2.006-3.387a9.44 9.44 0 0 0-2.994-2.196l-.058-.024c-1.181-.544-2.469-.815-3.866-.815h-.076c-1.388 0-2.71.286-3.909.802l.064-.025a9.708 9.708 0 0 0-3.16 2.146l-.002.002a10.162 10.162 0 0 0-2.088 3.173l-.025.067a10.086 10.086 0 0 0-.777 3.919v.064-.003a9.85 9.85 0 0 0 .814 3.979 10.263 10.263 0 0 0 2.203 3.239l.001.001a10.034 10.034 0 0 0 3.239 2.123l.067.024c1.188.492 2.567.777 4.013.777h.073-.004zm3.468-12.291h-7.985c.289-.987.783-1.752 1.481-2.295.699-.543 1.53-.815 2.494-.815.939 0 1.763.283 2.474.851s1.223 1.32 1.536 2.258zm18.028 12.291c1.59 0 3.017-.234 4.281-.703 1.265-.469 2.499-1.223 3.703-2.259l-3.865-3.517a4.741 4.741 0 0 1-1.662 1.093 5.708 5.708 0 0 1-2.09.389l-.082-.001h.004c-1.109 0-2.071-.29-2.89-.871a5.183 5.183 0 0 1-1.793-2.206l-.013-.034h13.621v-1.48c0-1.531-.241-2.955-.723-4.277-.481-1.32-1.15-2.449-2.005-3.387a9.44 9.44 0 0 0-2.994-2.196l-.058-.024c-1.181-.544-2.469-.815-3.866-.815h-.076c-1.388 0-2.71.286-3.909.802l.064-.025a9.708 9.708 0 0 0-3.16 2.146l-.002.002a10.165 10.165 0 0 0-2.089 3.173l-.025.067a10.086 10.086 0 0 0-.777 3.919v.064-.003c0 1.406.272 2.734.814 3.979a10.25 10.25 0 0 0 2.204 3.239l.001.001a10.03 10.03 0 0 0 3.238 2.123l.067.024c1.188.492 2.567.777 4.013.777h.073-.004zm3.468-12.291h-7.984c.289-.987.783-1.752 1.481-2.295s1.529-.815 2.493-.815c.939 0 1.765.283 2.475.851.71.568 1.223 1.32 1.535 2.258zm18.137 12.18c.553 0 1.24-.056 2.059-.167.818-.111 1.493-.253 2.023-.425V24.16a9.076 9.076 0 0 1-1.337.314 8.464 8.464 0 0 1-1.268.093h-.034.002c-.939 0-1.595-.178-1.969-.537-.373-.358-.56-.968-.56-1.832v-7.441h5.347V9.759h-5.347v-6.33l-5.851 1.296v5.034h-3.866v4.999h3.865v8.626c0 2.048.584 3.597 1.752 4.646s2.897 1.574 5.185 1.574z" style="fill:var(--color3, #28283d)"/></symbol></defs></svg>